<svg width="1080" height="1080" viewBox="0 0 1080 1080" fill="none" xmlns="http://www.w3.org/2000/svg">
<g clip-path="url(#clip0_929_18)">
<path d="M358.401 1033.09C358.401 1040.45 357.071 1046.82 354.412 1052.18C351.753 1057.55 348.105 1061.68 343.469 1064.59C338.832 1067.5 333.537 1068.95 327.582 1068.95C321.628 1068.95 316.332 1067.5 311.696 1064.59C307.06 1061.68 303.412 1057.55 300.753 1052.18C298.094 1046.82 296.764 1040.45 296.764 1033.09C296.764 1025.73 298.094 1019.36 300.753 1014C303.412 1008.64 307.06 1004.5 311.696 1001.59C316.332 998.682 321.628 997.227 327.582 997.227C333.537 997.227 338.832 998.682 343.469 1001.59C348.105 1004.5 351.753 1008.64 354.412 1014C357.071 1019.36 358.401 1025.73 358.401 1033.09ZM350.219 1033.09C350.219 1027.05 349.207 1021.94 347.185 1017.78C345.185 1013.62 342.469 1010.48 339.037 1008.34C335.628 1006.2 331.81 1005.14 327.582 1005.14C323.355 1005.14 319.526 1006.2 316.094 1008.34C312.685 1010.48 309.969 1013.62 307.946 1017.78C305.946 1021.94 304.946 1027.05 304.946 1033.09C304.946 1039.14 305.946 1044.24 307.946 1048.4C309.969 1052.56 312.685 1055.7 316.094 1057.84C319.526 1059.98 323.355 1061.05 327.582 1061.05C331.81 1061.05 335.628 1059.98 339.037 1057.84C342.469 1055.7 345.185 1052.56 347.185 1048.4C349.207 1044.24 350.219 1039.14 350.219 1033.09ZM398.536 1068V998.182H422.127C427.582 998.182 432.059 999.114 435.559 1000.98C439.059 1002.82 441.65 1005.35 443.332 1008.58C445.014 1011.81 445.855 1015.48 445.855 1019.59C445.855 1023.7 445.014 1027.35 443.332 1030.53C441.65 1033.72 439.071 1036.22 435.593 1038.03C432.116 1039.83 427.673 1040.73 422.264 1040.73H403.173V1033.09H421.991C425.718 1033.09 428.718 1032.55 430.991 1031.45C433.286 1030.36 434.946 1028.82 435.968 1026.82C437.014 1024.8 437.536 1022.39 437.536 1019.59C437.536 1016.8 437.014 1014.35 435.968 1012.26C434.923 1010.17 433.252 1008.56 430.957 1007.42C428.661 1006.26 425.627 1005.68 421.855 1005.68H406.991V1068H398.536ZM431.4 1036.64L448.582 1068H438.764L421.855 1036.64H431.4ZM485.863 1068V998.182H510.272C515.135 998.182 519.147 999.023 522.306 1000.7C525.465 1002.36 527.817 1004.6 529.363 1007.42C530.908 1010.22 531.681 1013.32 531.681 1016.73C531.681 1019.73 531.147 1022.2 530.079 1024.16C529.033 1026.11 527.647 1027.66 525.919 1028.8C524.215 1029.93 522.363 1030.77 520.363 1031.32V1032C522.499 1032.14 524.647 1032.89 526.806 1034.25C528.965 1035.61 530.772 1037.57 532.226 1040.11C533.681 1042.66 534.408 1045.77 534.408 1049.45C534.408 1052.95 533.613 1056.1 532.022 1058.9C530.431 1061.69 527.919 1063.91 524.488 1065.55C521.056 1067.18 516.59 1068 511.09 1068H485.863ZM494.317 1060.5H511.09C516.613 1060.5 520.533 1059.43 522.851 1057.3C525.192 1055.14 526.363 1052.52 526.363 1049.45C526.363 1047.09 525.76 1044.91 524.556 1042.91C523.351 1040.89 521.635 1039.27 519.408 1038.07C517.181 1036.84 514.544 1036.23 511.499 1036.23H494.317V1060.5ZM494.317 1028.86H509.999C512.544 1028.86 514.84 1028.36 516.885 1027.36C518.954 1026.36 520.59 1024.95 521.794 1023.14C523.022 1021.32 523.635 1019.18 523.635 1016.73C523.635 1013.66 522.567 1011.06 520.431 1008.92C518.294 1006.76 514.908 1005.68 510.272 1005.68H494.317V1028.86ZM582.675 998.182V1068H574.22V998.182H582.675ZM621.728 1005.68V998.182H674.092V1005.68H652.137V1068H643.683V1005.68H621.728ZM714.552 1068.55C712.87 1068.55 711.427 1067.94 710.222 1066.74C709.018 1065.53 708.415 1064.09 708.415 1062.41C708.415 1060.73 709.018 1059.28 710.222 1058.08C711.427 1056.87 712.87 1056.27 714.552 1056.27C716.233 1056.27 717.677 1056.87 718.881 1058.08C720.086 1059.28 720.688 1060.73 720.688 1062.41C720.688 1063.52 720.404 1064.55 719.836 1065.48C719.29 1066.41 718.552 1067.16 717.62 1067.73C716.711 1068.27 715.688 1068.55 714.552 1068.55ZM777.111 998.182V1068H768.656V1007.05H768.247L751.202 1018.36V1009.77L768.656 998.182H777.111Z" fill="white"/>
<circle cx="540" cy="540" r="384" transform="rotate(-90 540 540)" stroke="white" stroke-width="2"/>
<path d="M308 540C308 413.523 410.083 311 536 311C661.917 311 764 413.523 764 540C764 666.477 661.917 769 536 769C410.083 769 308 666.477 308 540Z" stroke="white" stroke-opacity="0.2" stroke-width="2"/>
<path d="M237 540C237 374.868 371.089 241 536.5 241C701.911 241 836 374.868 836 540C836 705.132 701.911 839 536.5 839C371.089 839 237 705.132 237 540Z" stroke="white" stroke-opacity="0.6" stroke-width="2"/>
<g filter="url(#filter0_i_929_18)">
<circle cx="540" cy="540" r="151" transform="rotate(-90 540 540)" fill="white"/>
</g>
<g filter="url(#filter1_d_929_18)">
<ellipse cx="244.5" cy="293" rx="59" ry="58.5" transform="rotate(-90 244.5 293)" fill="url(#paint0_linear_929_18)" shape-rendering="crispEdges"/>
</g>
<ellipse cx="787" cy="244.5" rx="58.5" ry="59" transform="rotate(-90 787 244.5)" fill="url(#paint1_linear_929_18)"/>
<ellipse cx="814" cy="804" rx="60" ry="59" transform="rotate(-90 814 804)" fill="url(#paint2_linear_929_18)"/>
<ellipse cx="264" cy="820" rx="59" ry="58" transform="rotate(-90 264 820)" fill="url(#paint3_linear_929_18)"/>
</g>
<defs>
<filter id="filter0_i_929_18" x="389" y="389" width="302" height="302" filterUnits="userSpaceOnUse" color-interpolation-filters="sRGB">
<feFlood flood-opacity="0" result="BackgroundImageFix"/>
<feBlend mode="normal" in="SourceGraphic" in2="BackgroundImageFix" result="shape"/>
<feColorMatrix in="SourceAlpha" type="matrix" values="0 0 0 0 0 0 0 0 0 0 0 0 0 0 0 0 0 0 127 0" result="hardAlpha"/>
<feOffset/>
<feGaussianBlur stdDeviation="34.3"/>
<feComposite in2="hardAlpha" operator="arithmetic" k2="-1" k3="1"/>
<feColorMatrix type="matrix" values="0 0 0 0 0 0 0 0 0 0 0 0 0 0 0 0 0 0 0.68 0"/>
<feBlend mode="normal" in2="shape" result="effect1_innerShadow_929_18"/>
</filter>
<filter id="filter1_d_929_18" x="182" y="234" width="125" height="126" filterUnits="userSpaceOnUse" color-interpolation-filters="sRGB">
<feFlood flood-opacity="0" result="BackgroundImageFix"/>
<feColorMatrix in="SourceAlpha" type="matrix" values="0 0 0 0 0 0 0 0 0 0 0 0 0 0 0 0 0 0 127 0" result="hardAlpha"/>
<feOffset dy="4"/>
<feGaussianBlur stdDeviation="2"/>
<feComposite in2="hardAlpha" operator="out"/>
<feColorMatrix type="matrix" values="0 0 0 0 0 0 0 0 0 0 0 0 0 0 0 0 0 0 0.25 0"/>
<feBlend mode="normal" in2="BackgroundImageFix" result="effect1_dropShadow_929_18"/>
<feBlend mode="normal" in="SourceGraphic" in2="effect1_dropShadow_929_18" result="shape"/>
</filter>
<linearGradient id="paint0_linear_929_18" x1="246.807" y1="296.937" x2="273.052" y2="258.703" gradientUnits="userSpaceOnUse">
<stop stop-color="white"/>
<stop offset="1" stop-color="white" stop-opacity="0"/>
</linearGradient>
<linearGradient id="paint1_linear_929_18" x1="768.438" y1="246.807" x2="786.261" y2="302.77" gradientUnits="userSpaceOnUse">
<stop offset="0.265213" stop-color="white"/>
<stop offset="1" stop-color="white" stop-opacity="0"/>
</linearGradient>
<linearGradient id="paint2_linear_929_18" x1="795.22" y1="789.107" x2="756.824" y2="825.15" gradientUnits="userSpaceOnUse">
<stop stop-color="white"/>
<stop offset="0.813679" stop-color="white" stop-opacity="0"/>
</linearGradient>
<linearGradient id="paint3_linear_929_18" x1="275.943" y1="813.447" x2="249.971" y2="778.22" gradientUnits="userSpaceOnUse">
<stop stop-color="white"/>
<stop offset="1" stop-color="white" stop-opacity="0"/>
</linearGradient>
<clipPath id="clip0_929_18">
<rect width="1080" height="1080" fill="white"/>
</clipPath>
</defs>
</svg>
